<?xml version="1.0" encoding="utf-8"?>
<!-- Generator: Adobe Illustrator 25.4.1, SVG Export Plug-In . SVG Version: 6.00 Build 0)  -->
<svg version="1.1" id="layer" xmlns="http://www.w3.org/2000/svg" xmlns:xlink="http://www.w3.org/1999/xlink" x="0px" y="0px"
	 viewBox="0 0 500 500" style="enable-background:new 0 0 500 500;" xml:space="preserve">
<style type="text/css">
	.st0{fill:none;}
</style>
<rect x="0" y="-0.4" class="st0" width="500" height="500"/>
<path d="M465.5,189l-66.4,66.4c-31.6,31.6-79.5,37.1-116.9,16.6l54.1-54.1c6-1.3,11.8-4.2,16.5-8.9l66.4-66.4
	c12.8-12.8,12.8-33.5,0-46.3l-15.4-15.4c-12.8-12.8-33.5-12.8-46.3,0l-66.4,66.4c-4.2,4.2-6.9,9.3-8.3,14.6l-55.1,55.1
	c-20-37.2-14.3-84.7,17.1-116L311,34.5c38.3-38.3,100.7-38.3,139,0l15.4,15.4C503.9,88.3,503.9,150.6,465.5,189z M194.2,350.7
	L352,192.9c12.6-12.6,12.6-33,0-45.6c-12.6-12.6-33-12.6-45.6,0L148.6,305.1c-12.6,12.6-12.6,33,0,45.6
	C161.2,363.3,181.6,363.3,194.2,350.7z M272,282.2l-54.1,54.1c-1.3,6-4.2,11.8-8.9,16.5l-66.4,66.4c-12.8,12.8-33.5,12.8-46.3,0
	l-15.4-15.4c-12.8-12.8-12.8-33.5,0-46.3l66.4-66.4c4.2-4.2,9.3-6.9,14.6-8.3l55.1-55.1c-37.2-20-84.7-14.3-116,17.1L34.5,311
	c-38.3,38.3-38.3,100.7,0,139l15.4,15.4c38.3,38.3,100.7,38.3,139,0l66.4-66.4C287,367.5,292.5,319.6,272,282.2z"/>
</svg>
