<?xml version="1.0" encoding="utf-8"?>
<!-- Generator: Adobe Illustrator 25.4.1, SVG Export Plug-In . SVG Version: 6.00 Build 0)  -->
<svg version="1.1" id="Twitter_X" xmlns="http://www.w3.org/2000/svg" xmlns:xlink="http://www.w3.org/1999/xlink" x="0px" y="0px"
	 viewBox="0 0 800.76 809.26" style="enable-background:new 0 0 800.76 809.26;" xml:space="preserve">
<style type="text/css">
	.st0{fill:#020203;}
</style>
<g>
	<g>
		<g>
			<path class="st0" d="M526.88,299.93c0,12.56-10.18,22.74-22.74,22.74s-22.74-10.18-22.74-22.74c0-12.56,10.18-22.74,22.74-22.74
				S526.88,287.37,526.88,299.93z M498.57,401.87c0,52.67-42.85,95.52-95.52,95.52c-52.67,0-95.52-42.85-95.52-95.52
				c0-52.67,42.85-95.52,95.52-95.52C455.72,306.35,498.57,349.2,498.57,401.87z M464.24,401.87c0-33.74-27.45-61.19-61.19-61.19
				c-33.74,0-61.19,27.45-61.19,61.19c0,33.74,27.45,61.19,61.19,61.19C436.79,463.06,464.24,435.61,464.24,401.87z M596.38,325.13
				c0-64.34-52.16-116.5-116.51-116.5H320.89c-64.34,0-116.51,52.16-116.51,116.5v158.99c0,64.34,52.16,116.5,116.51,116.5h158.98
				c64.35,0,116.51-52.16,116.51-116.5V325.13z M558.14,482.37c0,44.19-35.83,80.02-80.02,80.02H322.65
				c-44.2,0-80.02-35.83-80.02-80.02V326.89c0-44.19,35.82-80.02,80.02-80.02h155.47c44.19,0,80.02,35.82,80.02,80.02V482.37z"/>
		</g>
		<path class="st0" d="M400.38,25.03c-209.31,0-379.59,170.29-379.59,379.6c0,209.31,170.28,379.59,379.59,379.59
			s379.59-170.29,379.59-379.59C779.97,195.32,609.69,25.03,400.38,25.03z M400.38,735.54c-182.46,0-330.91-148.45-330.91-330.91
			c0-182.47,148.45-330.91,330.91-330.91c182.47,0,330.92,148.45,330.92,330.91C731.3,587.1,582.85,735.54,400.38,735.54z"/>
	</g>
</g>
</svg>
