<?xml version="1.0" encoding="utf-8"?>
<!-- Generator: Adobe Illustrator 25.4.1, SVG Export Plug-In . SVG Version: 6.00 Build 0)  -->
<svg version="1.1" id="Twitter_X" xmlns="http://www.w3.org/2000/svg" xmlns:xlink="http://www.w3.org/1999/xlink" x="0px" y="0px"
	 viewBox="0 0 800.76 809.26" style="enable-background:new 0 0 800.76 809.26;" xml:space="preserve">
<style type="text/css">
	.st0{fill:#020203;}
</style>
<g>
	<g id="XMLID_505_">
		<g id="XMLID_511_">
			<path class="st0" d="M346.39,520.02c10.62-2.2,19.85-6.3,27.67-12.29c6.92-5.2,12.71-11.62,17.34-19.25
				c7.26-11.53,10.89-24.53,10.89-39.05c0-14.05-3.18-26.02-9.53-35.87c-6.36-9.86-15.79-17.06-28.28-21.6
				c8.22-4.2,14.45-8.85,18.68-13.95c7.55-9.07,11.34-21.1,11.34-36.05c0-14.5-3.76-26.96-11.25-37.37
				c-12.45-16.93-33.6-25.62-63.44-26.07H201.47v244.82h110.33C324.22,523.35,335.77,522.24,346.39,520.02z M250.3,321.04h53.26
				c11.73,0,21.37,1.27,28.94,3.83c8.78,3.65,13.16,11.18,13.16,22.58c0,10.3-3.32,17.47-9.96,21.51
				c-6.62,4.04-15.26,6.06-25.89,6.06h-59.5V321.04z M250.3,480.82v-65.26h60.26c10.53,0.11,18.67,1.48,24.48,4.15
				c10.39,4.76,15.59,13.5,15.59,26.23c0,15.06-5.37,25.25-16.09,30.58c-5.9,2.88-14.18,4.31-24.78,4.31H250.3z"/>
		</g>
		<g id="XMLID_506_">
			<g id="XMLID_508_">
				<path class="st0" d="M443.75,507.22c18.42,14.86,39.68,22.28,63.76,22.28c29.2,0,51.91-8.8,68.11-26.41
					c10.44-11.08,16.29-21.99,17.56-32.72h-48.33c-2.81,5.31-6.06,9.46-9.75,12.45c-6.74,5.54-15.5,8.32-26.28,8.32
					c-10.17,0-18.87-2.27-26.09-6.81c-11.89-7.31-18.2-20.04-18.94-38.21h131.85c0.23-15.62-0.29-27.6-1.56-35.92
					c-2.2-14.2-7.01-26.68-14.43-37.42c-8.21-12.19-18.65-21.13-31.29-26.78c-12.61-5.65-26.81-8.47-42.57-8.47
					c-26.52,0-48.1,8.37-64.73,25.1c-16.63,16.72-24.94,40.77-24.94,72.13C416.13,468.2,425.34,492.36,443.75,507.22z
					 M477.57,386.86c6.7-6.89,16.11-10.34,28.25-10.34c11.18,0,20.54,3.26,28.09,9.75c7.55,6.51,11.75,16.05,12.61,28.61h-81.56
					C466.68,403.1,470.88,393.76,477.57,386.86z"/>
			</g>
			<g id="XMLID_507_">
				<rect x="449.53" y="292.6" class="st0" width="106.39" height="24.71"/>
			</g>
		</g>
	</g>
	<path class="st0" d="M400.38,25.03c-209.31,0-379.6,170.28-379.6,379.59c0,209.31,170.29,379.6,379.6,379.6
		c209.31,0,379.59-170.29,379.59-379.6C779.98,195.31,609.69,25.03,400.38,25.03z M400.38,735.54
		c-182.47,0-330.92-148.45-330.92-330.92c0-182.46,148.45-330.91,330.92-330.91c182.46,0,330.91,148.45,330.91,330.91
		C731.29,587.09,582.84,735.54,400.38,735.54z"/>
</g>
</svg>
