<?xml version="1.0" encoding="utf-8"?>
<!-- Generator: Adobe Illustrator 25.4.1, SVG Export Plug-In . SVG Version: 6.00 Build 0)  -->
<svg version="1.1" id="Twitter_X" xmlns="http://www.w3.org/2000/svg" xmlns:xlink="http://www.w3.org/1999/xlink" x="0px" y="0px"
	 viewBox="0 0 800.76 809.26" style="enable-background:new 0 0 800.76 809.26;" xml:space="preserve">
<style type="text/css">
	.st0{fill:#020203;}
</style>
<g>
	<path class="st0" d="M400.38,25.03c-209.31,0-379.6,170.28-379.6,379.59c0,209.31,170.29,379.6,379.6,379.6
		c209.31,0,379.59-170.29,379.59-379.6C779.98,195.31,609.69,25.03,400.38,25.03z M400.38,735.54
		c-182.47,0-330.92-148.45-330.92-330.92c0-182.46,148.45-330.91,330.92-330.91c182.46,0,330.91,148.45,330.91,330.91
		C731.29,587.09,582.84,735.54,400.38,735.54z"/>
	<g>
		<g id="Layer_1-2_1_">
			<path class="st0" d="M304.58,213.04l-68.43,68.43v246.33h82.11v68.43l68.43-68.43h54.74L564.6,404.63V213.04H304.58z
				 M537.23,390.94l-54.74,54.74h-54.74l-47.9,47.9v-47.9h-61.58V240.41h218.96V390.94z"/>
			<rect x="468.81" y="288.3" class="st0" width="27.37" height="82.11"/>
			<rect x="393.54" y="288.3" class="st0" width="27.37" height="82.11"/>
		</g>
	</g>
</g>
</svg>
