<?xml version="1.0" encoding="utf-8"?>
<!-- Generator: Adobe Illustrator 25.4.1, SVG Export Plug-In . SVG Version: 6.00 Build 0)  -->
<svg version="1.1" id="Twitter_X" xmlns="http://www.w3.org/2000/svg" xmlns:xlink="http://www.w3.org/1999/xlink" x="0px" y="0px"
	 viewBox="0 0 800.76 809.26" style="enable-background:new 0 0 800.76 809.26;" xml:space="preserve">
<style type="text/css">
	.st0{fill:#020203;}
</style>
<g>
	<path class="st0" d="M400.38,25.03c-209.31,0-379.6,170.28-379.6,379.59c0,209.31,170.29,379.6,379.6,379.6
		c209.31,0,379.59-170.29,379.59-379.6C779.98,195.31,609.69,25.03,400.38,25.03z M400.38,735.54
		c-182.47,0-330.92-148.45-330.92-330.92c0-182.46,148.45-330.91,330.92-330.91c182.46,0,330.91,148.45,330.91,330.91
		C731.29,587.09,582.84,735.54,400.38,735.54z"/>
	<g>
		<path class="st0" d="M400.38,192.66c-119.73,0-216.82,97.07-216.82,216.82c0,95.79,62.12,177.07,148.27,205.74
			c10.84,2.01,14.81-4.7,14.81-10.43c0-5.17-0.2-22.25-0.29-40.37c-60.32,13.12-73.05-25.58-73.05-25.58
			c-9.86-25.06-24.07-31.72-24.07-31.72c-19.67-13.46,1.48-13.18,1.48-13.18c21.77,1.53,33.24,22.34,33.24,22.34
			c19.34,33.15,50.72,23.56,63.09,18.02c1.95-14.01,7.56-23.58,13.77-28.99c-48.16-5.48-98.78-24.07-98.78-107.15
			c0-23.67,8.47-43.01,22.34-58.2c-2.25-5.46-9.67-27.51,2.1-57.38c0,0,18.21-5.83,59.64,22.22c17.29-4.8,35.84-7.21,54.27-7.3
			c18.43,0.08,36.99,2.49,54.32,7.3c41.38-28.05,59.56-22.22,59.56-22.22c11.8,29.86,4.38,51.92,2.13,57.38
			c13.9,15.18,22.31,34.53,22.31,58.2c0,83.28-50.72,101.61-99,106.98c7.78,6.73,14.71,19.92,14.71,40.15
			c0,29.01-0.25,52.36-0.25,59.5c0,5.77,3.9,12.53,14.89,10.4c86.1-28.7,148.15-109.94,148.15-205.71
			C617.19,289.73,520.12,192.66,400.38,192.66z M264.77,501.52c-0.48,1.08-2.17,1.4-3.72,0.66c-1.57-0.71-2.46-2.18-1.95-3.26
			c0.47-1.11,2.16-1.42,3.73-0.68C264.42,498.95,265.32,500.43,264.77,501.52z M275.43,511.03c-1.03,0.96-3.06,0.51-4.43-1
			c-1.42-1.51-1.68-3.53-0.64-4.51c1.07-0.96,3.03-0.51,4.45,1C276.24,508.05,276.52,510.06,275.43,511.03z M282.75,523.21
			c-1.33,0.92-3.5,0.06-4.84-1.87c-1.33-1.93-1.33-4.24,0.03-5.17c1.35-0.93,3.49-0.09,4.85,1.82
			C284.11,519.95,284.11,522.26,282.75,523.21z M295.13,537.31c-1.19,1.31-3.72,0.96-5.57-0.83c-1.9-1.75-2.42-4.23-1.23-5.54
			c1.2-1.31,3.75-0.94,5.62,0.83C295.82,533.51,296.39,536.01,295.13,537.31z M311.12,542.07c-0.52,1.7-2.96,2.47-5.42,1.75
			c-2.45-0.74-4.06-2.73-3.56-4.45c0.51-1.71,2.96-2.51,5.43-1.74C310.02,538.37,311.63,540.34,311.12,542.07z M329.32,544.09
			c0.06,1.79-2.02,3.27-4.6,3.3c-2.59,0.06-4.69-1.39-4.72-3.15c0-1.81,2.04-3.27,4.63-3.32
			C327.21,540.87,329.32,542.31,329.32,544.09z M347.2,543.4c0.31,1.74-1.48,3.54-4.04,4.01c-2.52,0.46-4.85-0.62-5.17-2.35
			c-0.31-1.79,1.51-3.58,4.02-4.04C344.57,540.58,346.87,541.63,347.2,543.4z"/>
	</g>
</g>
</svg>
