<?xml version="1.0" encoding="utf-8"?>
<!-- Generator: Adobe Illustrator 25.4.1, SVG Export Plug-In . SVG Version: 6.00 Build 0)  -->
<svg version="1.1" id="Twitter_X" xmlns="http://www.w3.org/2000/svg" xmlns:xlink="http://www.w3.org/1999/xlink" x="0px" y="0px"
	 viewBox="0 0 800.8 809.3" style="enable-background:new 0 0 800.8 809.3;" xml:space="preserve">
<style type="text/css">
	.st0{fill:#020203;}
</style>
<path class="st0" d="M401.9,25c-210.1,0-381,170.9-381,381c0,210.1,170.9,381,381,381s381-170.9,381-381C782.9,196,612,25,401.9,25z
	 M401.9,738.2c-183.2,0-332.2-149-332.2-332.2c0-183.2,149-332.2,332.2-332.2S734,222.9,734,406.1C734,589.2,585,738.2,401.9,738.2z
	"/>
<path class="st0" d="M445.3,381.8L578,224.9h-59.8L417.1,344.5l-90.5-119.6H202.9l149,196.8l-140,165.6h59.8L380.1,459l97.1,128.3
	h123.7L445.3,381.8z M527,551.6h-32.2c-0.6,0-1.2-0.3-1.6-0.8L274.6,260.5c-1-1.3-0.1-3.2,1.6-3.2h32.2c0.6,0,1.2,0.3,1.6,0.8
	l218.7,290.3C529.6,549.8,528.6,551.6,527,551.6z"/>
</svg>
