<?xml version="1.0" encoding="utf-8"?>
<!-- Generator: Adobe Illustrator 25.4.1, SVG Export Plug-In . SVG Version: 6.00 Build 0)  -->
<svg version="1.1" id="Twitter_X" xmlns="http://www.w3.org/2000/svg" xmlns:xlink="http://www.w3.org/1999/xlink" x="0px" y="0px"
	 viewBox="0 0 800.76 809.26" style="enable-background:new 0 0 800.76 809.26;" xml:space="preserve">
<style type="text/css">
	.st0{fill:#020203;}
</style>
<g>
	<g>
		<path class="st0" d="M231.16,307.25h72.61V540.5h-72.61V307.25z M267.48,191.34c23.22,0,42.04,18.84,42.04,42.01
			c0,23.2-18.81,42.07-42.04,42.07c-23.28,0-42.09-18.87-42.09-42.07C225.39,210.18,244.2,191.34,267.48,191.34 M349.27,540.5h72.47
			V425.13c0-30.42,5.75-59.88,43.5-59.88c37.15,0,37.68,34.79,37.68,61.86v113.4h72.45V412.57c0-62.82-13.53-111.1-86.94-111.1
			c-35.31,0-58.96,19.32-68.66,37.68h-0.95v-31.91h-69.55V540.5z"/>
	</g>
	<path class="st0" d="M400.37,25.03c-209.31,0-379.59,170.28-379.59,379.59c0,209.31,170.28,379.6,379.59,379.6
		s379.6-170.29,379.6-379.6C779.98,195.31,609.68,25.03,400.37,25.03z M400.37,735.54c-182.46,0-330.91-148.45-330.91-330.92
		c0-182.46,148.45-330.91,330.91-330.91c182.47,0,330.92,148.45,330.92,330.91C731.29,587.09,582.84,735.54,400.37,735.54z"/>
</g>
</svg>
