<?xml version="1.0" encoding="utf-8"?>
<!-- Generator: Adobe Illustrator 25.4.1, SVG Export Plug-In . SVG Version: 6.00 Build 0)  -->
<svg version="1.1" id="Layer_1" xmlns="http://www.w3.org/2000/svg" xmlns:xlink="http://www.w3.org/1999/xlink" x="0px" y="0px"
	 viewBox="0 0 500 500" style="enable-background:new 0 0 500 500;" xml:space="preserve">
<style type="text/css">
	.st0{fill:#330000;}
	.st1{fill:#FF9A00;}
</style>
<g id="Illustrator" transform="translate(2303 308)">
	<path id="_16" class="st0" d="M-2225-308h343.8c43.2,0,78.1,34.9,78.1,78.1v343.8c0,43.2-34.9,78.1-78.1,78.1H-2225
		c-43.2,0-78.1-34.9-78.1-78.1v-343.7C-2303.1-273.1-2268.1-308-2225-308z"/>
	<path id="_30" class="st1" d="M-2059.2-3.7h-76.3l-15.6,50.9c-0.5,1.8-2.1,3.1-4,2.9h-38.7c-2.2,0-2.9-1.2-2.4-3.6l65.9-190.3
		c0.7-2,1.3-4.2,2-6.8c0.9-3.6,1.3-7.5,1.3-11.3c-0.1-1.1,0.6-2.1,1.8-2.4c0.2,0,0.4,0,0.6,0h52.6c1.5,0,2.5,0.6,2.6,1.6l75.2,209.3
		c0.7,2.2,0,3.3-2,3.3h-42.9c-1.5,0.1-2.9-0.8-3.3-2.4L-2059.2-3.7z M-2124-38.8h56c-1.3-4.4-5.9-14.6-7.6-20.1
		c-1.8-5.5-4.2-9.9-6.1-16.1c-2-6.2-4-12.6-6-18.8c-2-6.2-3.8-12.3-5.5-18.2c-1.6-5.9-3.2-11.2-4.5-16h-0.4
		c-1.9,8.9-4.2,17.8-6.9,26.5c-3.1,9.9-6.2,20-9.4,30.3C-2117.7-60.8-2121-47.5-2124-38.8L-2124-38.8z"/>
	<path id="_31" class="st1" d="M-1949.5-129.5c-6.8,0.2-13.4-2.4-18.2-7.3c-4.7-5.1-7.2-11.9-6.9-18.8c-0.2-6.9,2.5-13.5,7.4-18.3
		c4.9-4.7,11.5-7.3,18.3-7.1c6.9-0.4,13.8,2.2,18.7,7.1c4.6,4.9,7.1,11.5,6.8,18.3c0.2,6.9-2.2,13.8-7.1,18.8
		C-1935.5-131.8-1942.4-129.1-1949.5-129.5z M-1970.9,47v-151c0-2,0.8-2.9,2.6-2.9h37.5c1.8,0,2.6,0.9,2.6,2.9V47
		c0,2.2-0.8,3.3-2.6,3.3h-37.2C-1969.8,50.3-1970.9,49.2-1970.9,47z"/>
</g>
</svg>
