<?xml version="1.0" encoding="utf-8"?>
<!-- Generator: Adobe Illustrator 25.4.1, SVG Export Plug-In . SVG Version: 6.00 Build 0)  -->
<svg version="1.1" id="Layer_1" xmlns="http://www.w3.org/2000/svg" xmlns:xlink="http://www.w3.org/1999/xlink" x="0px" y="0px"
	 viewBox="0 0 500 500" style="enable-background:new 0 0 500 500;" xml:space="preserve">
<style type="text/css">
	.st0{fill:#49021F;}
	.st1{fill:#FF3366;}
</style>
<g id="InDesign" transform="translate(2511 308)">
	<path id="_18" class="st0" d="M-2433-308h343.8c43.2,0,78.1,34.9,78.1,78.1v343.8c0,43.2-34.9,78.1-78.1,78.1H-2433
		c-43.2,0-78.1-34.9-78.1-78.1v-343.7C-2511.1-273.1-2476.1-308-2433-308z"/>
	<path id="_34" class="st1" d="M-2333.4-160.1V47c0,2.2-0.9,3.3-2.9,3.3h-37.8c-1.8,0-2.6-1.1-2.6-3.3v-207.1c0-1.8,0.9-2.6,2.9-2.6
		h37.8c1.3-0.1,2.5,0.7,2.6,2C-2333.3-160.5-2333.3-160.3-2333.4-160.1L-2333.4-160.1z"/>
	<path id="_35" class="st1" d="M-2210.7,54.8c-15.2,0.2-30.2-2.9-44.1-9.3c-12.9-6-23.6-15.6-30.9-27.9c-8-14.2-11.9-30.5-11.3-46.8
		c-0.1-15.2,3.8-30.1,11.3-43.3c7.8-13.4,19.1-24.5,32.7-31.7c16-8.3,33.9-12.5,51.9-11.9c1.1,0,2.6,0,4.4,0.1
		c1.8,0.1,5.6,0.2,8,0.5v-62.4c0-1.5,0.7-2.4,2-2.4h38.3c0.9-0.1,1.9,0.6,2,1.5c0,0.1,0,0.4,0,0.5V14.4c0,3.8,0.1,7.9,0.5,12.2
		s0.6,8.3,0.8,11.9c0.1,1.4-0.7,2.7-2,3.3c-10.2,4.5-20.9,7.8-31.9,9.9C-2189.5,53.7-2200.1,54.7-2210.7,54.8z M-2188.8,13.7v-90.2
		c-2.4-0.5-4.8-0.8-7.2-0.9c-2.2-0.2-4.5-0.4-6.8-0.4c-8-0.1-16,1.8-23.2,5.3c-15.8,7.5-25.3,23.9-24.1,41.3
		c-0.1,7.2,1.1,14.3,3.4,21.2c2,5.4,5.2,10.5,9.3,14.6c3.9,3.8,8.7,6.6,13.9,8.2c5.5,1.8,11.3,2.7,17.1,2.6c3.1,0,6-0.1,8.6-0.4
		C-2194.8,14.9-2191.7,14.4-2188.8,13.7L-2188.8,13.7z"/>
</g>
</svg>
