<?xml version="1.0" encoding="utf-8"?>
<!-- Generator: Adobe Illustrator 25.4.1, SVG Export Plug-In . SVG Version: 6.00 Build 0)  -->
<svg version="1.1" id="Layer_1" xmlns="http://www.w3.org/2000/svg" xmlns:xlink="http://www.w3.org/1999/xlink" x="0px" y="0px"
	 viewBox="0 0 500 500" style="enable-background:new 0 0 500 500;" xml:space="preserve">
<style type="text/css">
	.st0{fill:#0ACF83;}
	.st1{fill:#A259FF;}
	.st2{fill:#F24E1E;}
	.st3{fill:#FF7262;}
	.st4{fill:#1ABCFE;}
	.st5{fill:none;}
</style>
<desc>Created using Figma</desc>
<path id="path0_fill" class="st0" d="M166.7,499.5c46,0,83.3-37.3,83.3-83.2v-83.2h-83.3c-46,0-83.3,37.3-83.3,83.2
	S120.6,499.5,166.7,499.5z"/>
<path id="path1_fill" class="st1" d="M83.3,250c0-45.9,37.3-83.2,83.3-83.2h83.3v166.3h-83.2C120.6,333.2,83.3,295.9,83.3,250z"/>
<path id="path1_fill_1_" class="st2" d="M83.3,83.7c0-45.9,37.3-83.2,83.3-83.2h83.3v166.3h-83.2C120.6,166.8,83.3,129.6,83.3,83.7z
	"/>
<path id="path2_fill" class="st3" d="M250,0.5h83.3c46,0,83.3,37.3,83.3,83.2s-37.3,83.1-83.3,83.1H250V0.5z"/>
<path id="path3_fill" class="st4" d="M416.7,250c0,45.9-37.3,83.2-83.3,83.2S250,295.9,250,250s37.3-83.2,83.3-83.2
	S416.7,204.1,416.7,250z"/>
<rect class="st5" width="500" height="500"/>
</svg>
