<?xml version="1.0" encoding="utf-8"?>
<!-- Generator: Adobe Illustrator 25.4.1, SVG Export Plug-In . SVG Version: 6.00 Build 0)  -->
<svg version="1.1" id="Layer_1" xmlns="http://www.w3.org/2000/svg" xmlns:xlink="http://www.w3.org/1999/xlink" x="0px" y="0px"
	 viewBox="0 0 500 500" style="enable-background:new 0 0 500 500;" xml:space="preserve">
<style type="text/css">
	.st0{fill:#001E36;}
	.st1{fill:#31A8FF;}
</style>
<g id="Layer_2_1_">
	<g id="Surfaces">
		<g id="Photo_Surface">
			<g id="Outline_no_shadow">
				<path class="st0" d="M88.5,0h322.9C460.4,0,500,40.6,500,90.8v318.4c0,50.2-39.6,90.8-88.5,90.8H88.5C39.6,500,0,459.4,0,409.2
					V90.8C0,40.6,39.6,0,88.5,0z"/>
			</g>
		</g>
	</g>
	<g id="Outlined_Mnemonics_Logos">
		<g id="Ps">
			<path class="st1" d="M112.5,350.6V130.7c0-1.4,0.6-2.3,2.1-2.3c3.5,0,6.8,0,11.6-0.2c5.1-0.2,10.2-0.2,15.9-0.5
				c5.6-0.2,11.6-0.2,18.1-0.5c6.5-0.2,12.7-0.2,18.9-0.2c17.1,0,31.3,2.2,42.9,6.6c10.5,3.6,20,9.6,27.9,17.5
				c6.7,6.9,11.9,15.2,15.2,24.4c3.2,8.9,4.8,18.2,4.8,27.7c0,18.3-4.1,33.5-12.5,45.5c-8.3,11.9-20,21-33.5,26
				c-14.1,5.3-29.8,7.2-46.9,7.2c-5.1,0-8.3,0-10.5-0.2c-2.1-0.2-5.1-0.2-8.9-0.2v68.6c0.2,1.4-0.8,2.8-2.2,3c-0.2,0-0.5,0-0.8,0
				H115C113.4,353.4,112.5,352.5,112.5,350.6z M157.9,169.7v71.8c2.9,0.2,5.6,0.5,8.1,0.5h11.1c8.1,0,16.2-1.3,24-3.9
				c6.7-1.9,12.5-6,17.1-11.3c4.4-5.3,6.5-12.7,6.5-21.9c0.2-6.6-1.4-13.3-4.8-19.1c-3.5-5.5-8.6-9.8-14.6-12.2
				c-7.8-3.3-16-4.5-24.6-4.2c-5.4,0-10.2,0-14.1,0.2C162.3,169.2,159.3,169.4,157.9,169.7L157.9,169.7z"/>
			<path class="st1" d="M400,228.4c-6.2-3.4-12.9-5.8-20-7.2c-7.8-1.7-15.4-2.8-23.3-2.8c-4.1-0.2-8.6,0.5-12.5,1.4
				c-2.7,0.6-5.1,2.2-6.5,4.2c-1.1,1.7-1.6,3.9-1.6,5.8s0.8,3.9,2.1,5.5c1.9,2.3,4.4,4.2,7.1,5.8c4.8,2.5,9.8,4.9,14.8,7
				c11.3,3.9,22.1,9.2,32.1,15.6c6.8,4.5,12.5,10.5,16.5,17.7c3.3,6.9,5.1,14.4,4.8,21.9c0.2,10-2.7,20.1-8.1,28.5
				c-5.9,8.6-14,15.2-23.3,19.1c-10.2,4.5-22.7,6.9-37.7,6.9c-9.5,0-18.9-0.8-28.3-2.8c-7.3-1.3-14.6-3.6-21.3-6.9
				c-1.4-0.8-2.5-2.3-2.2-4.1v-37.1c0-0.6,0.2-1.4,0.8-1.9c0.6-0.5,1.3-0.2,1.9,0.2c8.1,4.9,16.7,8.3,25.9,10.5
				c7.9,2.2,16.2,3.3,24.6,3.3c7.9,0,13.5-1.1,17.3-3c3.3-1.4,5.6-5.2,5.6-8.9c0-3-1.6-5.8-5.1-8.6c-3.3-2.8-10.2-6-20.5-10
				c-10.6-3.9-20.5-8.9-29.6-15.4c-6.5-4.7-11.9-10.9-15.9-18.2c-3.3-6.9-5.1-14.4-4.8-21.8c0-9.2,2.5-18,7.1-25.8
				c5.2-8.6,12.9-15.4,21.9-19.7c9.8-5.2,22.1-7.5,36.9-7.5c8.6,0,17.3,0.6,25.9,1.9c6.2,0.8,12.3,2.5,17.9,4.9
				c0.8,0.2,1.6,1.1,2.1,1.9c0.2,0.8,0.5,1.7,0.5,2.5v34.9c0,0.8-0.5,1.7-1.1,2.2C401.9,228.9,400.9,228.9,400,228.4z"/>
		</g>
	</g>
</g>
</svg>
