<?xml version="1.0" encoding="UTF-8"?>
<svg id="Capa_1" xmlns="http://www.w3.org/2000/svg" version="1.1" viewBox="0 0 550.9 184.3">
  <!-- Generator: Adobe Illustrator 29.0.1, SVG Export Plug-In . SVG Version: 2.1.0 Build 192)  -->
  <defs>
    <style>
      .st0 {
        fill: #ff2d2d;
      }
    </style>
  </defs>
  <g>
    <path d="M150.2,32.1C139.1,8.8,104.2.2,77.7,0c0,0,0,0,0,0C51.1.2,16.2,8.8,5.1,32.1c-6.3,13.3-6.8,30.4-1.4,50.7,4.4,16.6,11.7,31.2,15.6,38.4,9.3,17,20.5,32.2,22.8,35.1.2.2.5.4.8.4,0,0,0,0,.1,0,.3,0,.5,0,.7-.3l7.2-5.8c.5-.4.6-1.1.2-1.6-2.9-3.6-13.5-18.3-21.7-33.4-.7-1.4-1.5-2.8-2.2-4.3l44.7-12v56.5c0,.6.5,1.2,1.2,1.2h9.2c.6,0,1.2-.5,1.2-1.2v-59.6l68.7-18.4c.4-.1.8-.5.8-.9l.5-2.8c3.2-16.6,2-30.7-3.4-42.1ZM71.9,11.7v75.8l-49.6,13.3c-8.1-18.8-15.7-44.8-6.7-63.7,6.6-14,28.7-23.9,56.3-25.3ZM142.8,68.5l-59.4,15.9V11.7c27.6,1.5,49.7,11.4,56.3,25.3,3.9,8.3,5,18.9,3.1,31.4Z"/>
    <path class="st0" d="M128.5,116c-.3,0-.5.1-.6.4l-.8,1.3c-3.2,5.4-6.9,11-10.5,16.3-3.5,5-7.3,10.1-11.7,15.3l-.5.6c-.2.3-.2.7,0,.9l7.1,6.2c.2.1.4.2.6.2.2,0,.4-.1.5-.3l.5-.7c2.2-2.8,4.4-5.7,6.6-8.7l1-1.4v1.8c0,.7,0,1.6,0,2.5v1.9c0,.3.2.6.5.7.3,0,.7,0,.8-.3l1-1.6c11-18.2,19.2-37.3,25.2-58.5.1-.6-.2-1.2-.8-1.4h0c-.6-.2-1.2,0-1.5.6-4.5,10.6-9.5,20.4-15.2,29.8l-.8,1.4-.2-1.6c-.1-.9-.2-1.9-.4-3.1l-.2-1.4c0-.3-.3-.5-.6-.6,0,0,0,0-.1,0Z"/>
    <path class="st0" d="M104.6,164.3l-6.1-5.8c-.3-.3-.6-.4-1-.4-.4,0-.7.2-1,.4-10.6,11.2-16.4,14.3-17.9,14.4-.1,0-.3,0-.5,0-.1,0-.3,0-.4,0-.1,0-.3,0-.4,0-.2,0-.4,0-.5,0-1.6-.1-7.5-3.3-18.3-14.6-.3-.3-.6-.4-1-.4-.4,0-.7.1-1,.4l-6.1,5.8c-.6.5-.6,1.4,0,2,16.5,17.4,23.3,18,25.5,18.1h0c.3,0,1,.1,1.7.1h0c.6,0,1.1,0,1.4,0,0,0,0,0,0,0,2.5-.1,9.1-.6,25.5-17.9.5-.6.5-1.5,0-2Z"/>
  </g>
  <rect class="st0" x="254.3" y="6.2" width="8.7" height="171.9" rx="1.4" ry="1.4"/>
  <g>
    <path class="st0" d="M413.9,79c-.3,0-.8.2-.9.4-.5.6-1.3.5-1.7.3-.9-.3-1.7,0-2.5-.2-.7,0-1.5,0-2.2,0-.3,0-.9.2-1.2.4-.3.2-.6,0-.9,0-.5,0-.3-.3-.5-.6-.9-1.5-.9-3.4-1.2-5-.3-1-.6-2.1-.6-3.2-.2-1.5-1-3-.9-4.6,0-.3,0-.7-.3-.9s-.2-.3-.3-.3c-.6,0-1.3-.3-1.8,0-.8.2-1.1,0-1.9,0s-1.5,0-2.1,0c-1.4,0-1.9-.2-3.2,0-.7,0-.9.2-1,.9-.2,1.8-.6,3.6-.9,5.4-.2.9-.5,1.8-.6,2.7-.2,1.1-.4,2.1-.4,3.2s-.4,1.5-.9,2.2c-.3.4-.9,0-1.2.4-.7-.4-1.4-.3-2.1-.2-2.1.2-2.6-.2-2.9,0-1.1,0-1.1-.3-2.4,0-.5,0-.9,0-1-.3s.3-.9.3-1.4l.4-1.8,1.3-7.8c0-1.1.3-2.2.4-3.3-.9,0-2.6.3-2.6-.9,0,0,0-.3-.2-.4-.2-1.2-.9-2.3-.8-3.5,0-1.1-.2-1.7-.6-2.8-.2-.4-.3-1.7-.3-2.1.3-.5,2.6-.2,3.1-.3.9,0,1.7,0,2.5,0,0-.3,0-.5,0-.8l.6-2.2.2-2.4c.2-1.7.5-3.5.9-5.3.2-.5.4-1.1.4-1.7,0-.7,0-1.3.3-1.9,0-.6.3-1.2.2-1.9,0-.5.2-1,.3-1.6.3-1.8.5-3.6.9-5.4.6-2.4,1.4-2.2,1.2-3.3-.3-1.3,0-2.6.3-3.9.3-.8.3-1.5.3-2.3.2-1.1.6-2.2.7-3.4.3-1.5.7-2.8.6-4.3,0-.8.3-1.5.4-2.1.5-1.9.9-3.4,1.1-4.8.2-1,.9-2.1,2-2.1s1,0,1.5.2c.9.2,1.7,0,2.5.3s.4,0,.6,0c1.1-.3,2.1.2,3.2,0,.4,0,.8.3,1.2.3.4.2.4.4.4.8,0,1.2.8,2.6,1,3.8.3,1.4.7,2.6.7,4s.3.8.3,1.2c.2,1.5,0,2.9.2,4.4l1.6,7c.3,1.2.3,2.5.5,3.7.3,2.1.9,3.9,1.2,5.9,0,.2.2.3,0,.6,0,1.1.3,2.2.4,3.2l.9,5.8c0,.9.7,1.4.6,2.2-.2,2.4.6,3.2.6,4.8,0,.3,0,.5,0,.7.7,2.1.5,4.4.9,6.6.3,2.2.6,4.4.9,6.7.3,1.5.7,3.1,1,4.6.3,2.1.7,4.2,1.4,6.2ZM399.1,55.4c0-.4-.4-.6-.3-1,0-1,0-2.1-.3-3.1-.3-1.1,0-2.3-.4-3.4-.2-.7-.2-1.4-.3-2.1,0-1.3-.2-2.5-.3-3.7,0-1.2-.3-2.2-.3-3.3,0-1.6-.6-6.7-.9-8.2,0-.6,0-1.1-.7-1.6,0,1.9-1,6.2-.9,7.9,0,0,0,1-.2,1.1-.6,1.1-.3,2-.6,3.2-.4,1.3-.4,2.6-.6,3.8-.4,2.5-1.2,4.9-1.4,7.4,0,.9-.4,1.8-.3,2.9,2.6,0,5-.3,7.5,0Z"/>
    <path class="st0" d="M437,70.3c.9,2.8,1.9,5.6,3,8.3,0,0,0,.2,0,.3-.2,0-.3.3-.5.4-.9,0-1.7.3-2.5.3l-7.3.2c-1.4,0-2.6,0-4,0-1.2,0-2.5.2-3.8,0-1.3,0-2.6,0-3.8,0-.6-.4-.5-.9-.5-1.2,0-1.7-.3-3.3.3-5,0-.3,0-.7,0-.9-.2-.7.3-1.5-.2-2.1.5-.6,0-1.3.2-2,.2-.7,0-1.5.4-2.1l-.3-1.5c0-.6,0-1.3-.3-1.9-.2-.4-.2-.9-.2-1.4,0-1.1,0-2.1,0-3.2,0-.9.2-1.9.3-2.8,0-1-.3-2.1,0-3.2.3-1.1,0-2.2-.2-3.3,0-.7.5-1.2.2-1.9-.3-.6-.2-1.2,0-1.9,0-.2,0-.4,0-.7,0-.7-.2-1.4-.2-2.1,0-5.1,0-10.2,0-15.3s0-1.3-.3-1.9c0-.4-.2-.9,0-1.2.6-2.1.2-4.4.3-6.5,0-.6,0-1.3.3-1.8-.4-3,0-5.9-.4-8.9.8-.6,1.5-1.2,2.6-1l1.1.7.5-.5c.3,0,.4-.2.5-.2,1.9.4,3.9,0,5.7.5,0,1.2-.3,2.2,0,3.3.2,1,0,2.1.2,3.2.2,1,0,2.1,0,3.2v11.7c0,2.1,0,4,0,6s0,.9,0,1.2c-.5,2.8-.4,5.6-.2,8.4,0,.9-.3,1.8,0,2.6.4,1.9.3,3.8.3,5.7v16.3c0,.4,0,.8.2,1.1,2.3.3,6.4.3,8,0,.4.2.7.5.8.9Z"/>
    <path class="st0" d="M478,79c-.3,0-.8.2-.9.4-.5.6-1.3.5-1.7.3-.9-.3-1.7,0-2.5-.2-.7,0-1.5,0-2.2,0-.3,0-.9.2-1.2.4-.3.2-.6,0-.9,0-.5,0-.3-.3-.5-.6-.9-1.5-.9-3.4-1.2-5-.3-1-.6-2.1-.6-3.2-.2-1.5-1-3-.9-4.6,0-.3,0-.7-.3-.9s-.2-.3-.3-.3c-.6,0-1.3-.3-1.8,0-.8.2-1.1,0-1.9,0s-1.5,0-2.1,0c-1.4,0-1.9-.2-3.2,0-.7,0-.9.2-1,.9-.2,1.8-.6,3.6-.9,5.4-.2.9-.5,1.8-.6,2.7-.2,1.1-.4,2.1-.4,3.2s-.4,1.5-.9,2.2c-.3.4-.9,0-1.2.4-.7-.4-1.4-.3-2.1-.2-2.1.2-2.6-.2-2.9,0-1.1,0-1.1-.3-2.4,0-.5,0-.9,0-1-.3s.3-.9.3-1.4l.4-1.8,1.3-7.8c0-1.1.3-2.2.4-3.3-.9,0-2.6.3-2.6-.9,0,0,0-.3-.2-.4-.2-1.2-.9-2.3-.8-3.5,0-1.1-.2-1.7-.6-2.8-.2-.4-.3-1.7-.3-2.1.3-.5,2.6-.2,3.1-.3.9,0,1.7,0,2.5,0,0-.3,0-.5,0-.8l.6-2.2.2-2.4c.2-1.7.5-3.5.9-5.3.2-.5.4-1.1.4-1.7,0-.7,0-1.3.3-1.9,0-.6.3-1.2.2-1.9,0-.5.2-1,.3-1.6.3-1.8.5-3.6.9-5.4.6-2.4,1.4-2.2,1.2-3.3-.3-1.3,0-2.6.3-3.9.3-.8.3-1.5.3-2.3.2-1.1.6-2.2.7-3.4.3-1.5.7-2.8.6-4.3,0-.8.3-1.5.4-2.1.5-1.9.9-3.4,1.1-4.8.2-1,.9-2.1,2-2.1s1,0,1.5.2c.9.2,1.7,0,2.5.3s.4,0,.6,0c1.1-.3,2.1.2,3.2,0,.4,0,.8.3,1.2.3.4.2.4.4.4.8,0,1.2.8,2.6,1,3.8.3,1.4.7,2.6.7,4s.3.8.3,1.2c.2,1.5,0,2.9.2,4.4l1.6,7c.3,1.2.3,2.5.5,3.7.3,2.1.9,3.9,1.2,5.9,0,.2.2.3,0,.6,0,1.1.3,2.2.4,3.2l.9,5.8c0,.9.7,1.4.6,2.2-.2,2.4.6,3.2.6,4.8,0,.3,0,.5,0,.7.7,2.1.5,4.4.9,6.6.3,2.2.6,4.4.9,6.7.3,1.5.7,3.1,1,4.6.3,2.1.7,4.2,1.4,6.2ZM463.2,55.4c0-.4-.4-.6-.3-1,0-1,0-2.1-.3-3.1-.3-1.1,0-2.3-.4-3.4-.2-.7-.2-1.4-.3-2.1,0-1.3-.2-2.5-.3-3.7,0-1.2-.3-2.2-.3-3.3,0-1.6-.6-6.7-.9-8.2,0-.6,0-1.1-.7-1.6,0,1.9-1,6.2-.9,7.9,0,0,0,1-.2,1.1-.6,1.1-.3,2-.6,3.2-.4,1.3-.4,2.6-.6,3.8-.4,2.5-1.2,4.9-1.4,7.4,0,.9-.4,1.8-.3,2.9,2.6,0,5-.3,7.5,0Z"/>
    <path class="st0" d="M514.2,6.5c.4.3.4.7.4.9v16.5c0,1.3,0,2.6,0,3.9,0,1.1-.2,2.3,0,3.5,0,1.2,0,2.4,0,3.6s-.2,2.4,0,3.5c.2.9,0,1.9.3,2.8.3.8,0,1.6.2,2.4,0,1.4.3,2.7.2,4.2l-.3,5.1c0,.4,0,.9,0,1.2,0,.9.3,1.8.2,2.7,0,2.6.3,5,.3,7.5s0,2.6,0,3.8c0,1.2,0,2.4,0,3.5-.2,1.2,0,2.3,0,3.5v1.8c0,.6-.4,1.1-.3,1.7,0,0,0,.2,0,.4-.9.3-1.6,1.3-2.8.7-1.2.4-2.3,0-3.3-.3-.7-.2-1.7.2-2.2,0h-1.5c-.8-.3-.9-1.1-1.1-1.7-.7-2.6-1.5-5.3-2-7.9-.2-.6-.6-1.1-.8-1.7-.3-1.9-.8-3.5-1.5-5.2-.5-1.2-1-2.3-1.4-3.5-.5-1.3-.7-2.6-1-3.9-.8-2.6-1.5-5.2-2.4-7.8-.4-1.6-.9-3.2-1.1-5l-.7-.8c.3-.2-.4-.5.2-.7l-.7-.8c.3-.3-.2-.5,0-.8l-.5-.6c0-1.1-.5-1.8-1-2.7-.5.7-.3,1.5-.2,1.9.3,2.6.2,5.3.2,7.9,0,1.2.2,2.3.3,3.5.2,2,.2,3.8,0,5.8,0,.3,0,.8,0,1.1,0,2.9,0,5.7.3,8.6,0,.4,0,.9-.3,1.4.4.9.3,1.7.4,2.6l.2,5.1v3.2c0,.4-.4.5-.5.9,0,.3.3.5.2.9-.3.4-1.2.7-1.7.3-.7-.4-1.2,0-1.9-.2-.3.3-2.3.4-3.7.2-1.1-.2-1.8-.3-2.8.3-.4,0-.6-.3-.9-.7,0-2,0-3.9.2-6,.2-1.7.2-3.6,0-5.4,0-1.1,0-2.2,0-3.3,0-.7,0-1.3-.2-1.9-.3-.9.2-1.7,0-2.6-.2-.9,0-2.1-.2-3-.3-1.5-.3-2.8,0-4.3,0-.6,0-1.3,0-1.9,0-.5.3-4.2.3-4.7.2-1-.3-2.1-.3-3.2-.2-1.7,0-3.4,0-5.1,0-2.9,0-5.8-.3-8.8,0-1.3.2-2.6.2-4,.2-1.6,0-3.3.2-5,.2-1,.2-2.2,0-3.3,0-.4,0-.9.3-1.2-.2-.3-.4-.4-.3-.6.2-1.1-.2-2.1,0-3.2.3-1.4,0-2.8,0-4.2,0-.4.4-.6.7-.9.3-.2.7-.2.9,0,1.3-.5,1.6,0,3.9,0,1.4-.9,2.9.3,4.3-.3.4.2.7.5.8.9.3,1.1.6,2.1,1,3.2.5,1.1.6,2.3,1.2,3.3.4.9.5,1.9.8,2.8.7,2.2,1.1,4.4,1.9,6.7.4,1.2.6,2.6,1.2,3.7.6,1.1.9,2.4,1.5,3.5,0,.2.3.3.3.6,0,1,.4,2,.9,2.9.3.9,1.1,4.8,1.5,5.6.7,1.2.9,2.6,1.3,3.9.2.8.8,1.4.3,2.2,0,.2.3.3.5.2,0,.5.3,1.1.5,1.9.2-1.9.2-3.5,0-5.1,0-.3,0-.6,0-.9.3-2-.3-7-.3-9.1s0-4.5,0-6.8c0-1.1,0-2.2-.3-3.3,0-.8-.3-1.6,0-2.4,0-.3,0-.6,0-.9,0-1.9,0-3.8,0-5.7,0-1.8.3-3.6,0-5.3,0-.7-.2-1.4.5-2.1,3.2.4,6.5.3,9.7.3Z"/>
    <path d="M346.4,131.6c0-3.4-.2-6.7.2-10.1,0-1.2,0-2.4,0-3.5l-.2-8.7c0-.7,0-1.4-.2-2.1,1-.2,1.5-.4,3.2-.3,1,.5,2.1.2,3.2.2,1.6,0,3.2,0,4.9,0s1.1,0,1.6,0c.9,0,1.9-.6,2.8,0,.9-.3,1.8,0,2.6-.3,1-.3,2,.2,3,.2.9,0,1.8.4,2.6,1,1.7,1.2,3.2,2.6,3.8,4.7l.7,1.1v2.1c0,5.3,0,10.7,0,16.1,0,2.6-.2,5.1,0,7.7,0,1-.3,2.1-.9,2.9-.3.6-.6,1.1-1,1.7-1.4,1.5-3.3,2.1-4.8,2.8-3.7,1-7.1.7-10.4.9,0,.2-.2.3-.2.3-.3,1.5,0,2.9-.3,4.3,0,.2,0,.3,0,.5,0,.2,0,.3,0,.4-.4,3-.5,6.1-.2,9.1-.4,4.2,0,8.5-.3,12.6v2c0,.8,0,1.5-.3,2.4-.2,0-.3.3-.5.4-3,.2-5.9.2-8.8,0-1.1-1.3-1.1-2.7-.8-4.1.2-.9.3-1.7,0-2.6-.3-1.1-.3-2.3,0-3.3.3-1.1.3-2.1.3-3.1,0-4.7,0-9.3,0-13.9,0-1.5,0-3.4,0-4.7-.3-.7-.7-.3-1.2-.3-.5,0-1,.2-1.5-.2,0-.2-.2-.3-.2-.4-.3-.9-.5-1.7-.5-2.6s-.4-2-.5-3c-.2-1-.5-2.1-.9-3.1l.6-.7c1.2,0,2.4.3,3.7,0v-6.3ZM357.4,116.7s0,0,0-.2h-.2c0,0,.2.2.3.2ZM357.5,137.3s0,0,0,.2c0,0,.2,0,.3.3,1.7.2,3.4.2,5,0,1.2-.9,2.1-1.8,2.2-3.2,0-.5-.3-1.1-.3-1.8,0-1.5,0-3.2,0-4.8,0-2.6,0-5.3,0-7.9,0-1.3-.4-2.4-1.4-3.2-2-.9-3.8-.8-5.8-.3,0,6.9,0,13.8,0,20.6Z"/>
    <path d="M399.2,171.2c0,.2.2.3.2.5,0,2.3,0,4.6,0,6.9s0,.6,0,.9c-.9.5-1.8,0-2.6.2-.9.2-1.9,0-2.9.3-.8.2-1.7.3-2.5.2-.9-.3-1.7-.2-2.6-.2l-2.6.3h-5.7c-.6-.3-1-.5-1.3-1.1-.3-2.5.5-5.1,0-7.8.3-.5.7-.7,1.2-.7.9,0,2.3-.2,3.2-.2.3-.3.5-.6.5-.9-.3-1.4,0-2.8.3-4.2,0-.9.3-1.6,0-2.6-.2-.5,0-1,.2-1.6,0-.4-.2-.9-.2-1.4,0-.9.2-1.7,0-2.6-.2-.8,0-1.6,0-2.4s0-1.8,0-2.6c.2-1.5,0-3.1.5-4.6-.5-1.1-.6-2.4,0-3.5-.6-1.5,0-2.8,0-4.2-.2-1.5-.3-3,0-4.4-.6-1.4-.3-2.8-.4-4.3v-4.3c0-1.5,0-3.1,0-4.6s0-2.8-.2-4.2c-.3-.4-.7-.3-1.1-.3h-2.7c-.3-.8-.5-1.4-.5-2.1,0-.7-.7-1.4-.7-2.1,0-1.9-.9-4.2-.9-6.1.7-.9,1.7-.9,2.6-.7.9,0,3.5,0,4.4,0s1.8,0,2.7,0c.5,0,1-.3,1.5,0,1.1.5,2.3.2,3.5.2,1.7,0,3.8-.3,5.5-.5.6.3,0,1.2.8,1.4-.4,2.7,0,5.9-.3,8.5-.9,1.5-2.9.8-4.2,1.6-.2,1.4,0,2.9,0,4.4,0,1.2,0,2.4,0,3.6,0,1.2-.5,2.2-.3,3.3,0,1.1.2,2.2.3,3.3,0,.9-.3,1.8-.2,2.8.2.9,0,1.7.2,2.6,0,1-.4,2.1-.2,3.1-.5,2.1,0,4.1-.2,6.2.4,1,0,2.1.3,3.2,0,.6,0,1.2-.2,1.8-.2,1.2-.3,2.4,0,3.6.2.4,0,.9,0,1.4,0,3.5,0,7.1,0,10.6s-.2,1.5.2,2.2c1.1.3,2.3,0,3.3.2.6.2.9.6,1.2.9Z"/>
    <path d="M437.3,107c.4.3.4.7.4.9v16.5c0,1.3,0,2.6,0,3.9,0,1.1-.2,2.3,0,3.5,0,1.2,0,2.4,0,3.6s-.2,2.4,0,3.5c.2.9,0,1.9.3,2.8.3.8,0,1.6.2,2.4,0,1.4.3,2.7.2,4.2l-.3,5.1c0,.4,0,.9,0,1.2,0,.9.3,1.8.2,2.7,0,2.6.3,5,.3,7.5s0,2.6,0,3.8c0,1.2,0,2.4,0,3.5-.2,1.2,0,2.3,0,3.5v1.8c0,.6-.4,1.1-.3,1.7,0,0,0,.2,0,.4-.9.3-1.6,1.3-2.8.7-1.2.4-2.3,0-3.3-.3-.7-.2-1.7.2-2.2,0h-1.5c-.8-.3-.9-1.1-1.1-1.7-.7-2.6-1.5-5.3-2-7.9-.2-.6-.6-1.1-.8-1.7-.3-1.9-.8-3.5-1.5-5.2-.5-1.2-1-2.3-1.4-3.5-.5-1.3-.7-2.6-1-3.9-.8-2.6-1.5-5.2-2.4-7.8-.4-1.6-.9-3.2-1.1-5l-.7-.8c.3-.2-.4-.5.2-.7l-.7-.8c.3-.3-.2-.5,0-.8l-.5-.6c0-1.1-.5-1.8-1-2.7-.5.7-.3,1.5-.2,1.9.3,2.6.2,5.3.2,7.9,0,1.2.2,2.3.3,3.5.2,2,.2,3.8,0,5.8,0,.3,0,.8,0,1.1,0,2.9,0,5.7.3,8.6,0,.4,0,.9-.3,1.4.4.9.3,1.7.4,2.6l.2,5.1v3.2c0,.4-.4.5-.5.9,0,.3.3.5.2.9-.3.4-1.2.7-1.7.3-.7-.4-1.2,0-1.9-.2-.3.3-2.3.4-3.7.2-1.1-.2-1.8-.3-2.8.3-.4,0-.6-.3-.9-.7,0-2,0-3.9.2-6,.2-1.7.2-3.6,0-5.4,0-1.1,0-2.2,0-3.3,0-.7,0-1.3-.2-1.9-.3-.9.2-1.7,0-2.6-.2-.9,0-2.1-.2-3-.3-1.5-.3-2.8,0-4.3,0-.6,0-1.3,0-1.9,0-.5.3-4.2.3-4.7.2-1-.3-2.1-.3-3.2-.2-1.7,0-3.4,0-5.1,0-2.9,0-5.8-.3-8.8,0-1.3.2-2.6.2-4,.2-1.6,0-3.3.2-5,.2-1,.2-2.2,0-3.3,0-.4,0-.9.3-1.2-.2-.3-.4-.4-.3-.6.2-1.1-.2-2.1,0-3.2.3-1.4,0-2.8,0-4.2,0-.4.4-.6.7-.9.3-.2.7-.2.9,0,1.3-.5,1.6,0,3.9,0,1.4-.9,2.9.3,4.3-.3.4.2.7.5.8.9.3,1.1.6,2.1,1,3.2.5,1.1.6,2.3,1.2,3.3.4.9.5,1.9.8,2.8.7,2.2,1.1,4.4,1.9,6.7.4,1.2.6,2.6,1.2,3.7.6,1.1.9,2.4,1.5,3.5,0,.2.3.3.3.6,0,1,.4,2,.9,2.9.3.9,1.1,4.8,1.5,5.6.7,1.2.9,2.6,1.3,3.9.2.8.8,1.4.3,2.2,0,.2.3.3.5.2,0,.5.3,1.1.5,1.9.2-1.9.2-3.5,0-5.1,0-.3,0-.6,0-.9.3-2-.3-7-.3-9.1s0-4.5,0-6.8c0-1.1,0-2.2-.3-3.3,0-.8-.3-1.6,0-2.4,0-.3,0-.6,0-.9,0-1.9,0-3.8,0-5.7,0-1.8.3-3.6,0-5.3,0-.7-.2-1.4.5-2.1,3.2.4,6.5.3,9.7.3Z"/>
    <path d="M464.5,112l.3-1.2c-.3-1.1-.5-2.4-.2-3.8,3.2-.7,6.3-.3,9.5-.3l.8.7c0,2.1,0,4.2,0,6.2,0,4.8,0,9.6,0,14.4,0,2.5,0,4.9,0,7.3s-.2,4,.3,6c-.4,1.8.3,3.6,0,5.4-.2,1.8.2,3.5-.2,5.3,0,.7,0,1.4,0,2.1l-.3,1.9c0,.3,0,.8,0,1.2.6,2.2.2,4.6.3,6.9,0,.8-.4,1.5,0,2.3.3.7-.3,1.4-.3,2.1v7.7c0,.4.3,1.3.3,1.6.2.7.3,1.3-.2,2.1-1.1.3-2.3,0-3.5.2-1.1,0-2.2-.3-3.2.3-1.2-.3-2.4.3-3.5,0-.7-.4-.9-1-.8-1.6.3-2.7,0-6,.2-8.6,0-2.1,0-4,.4-6,0-.3,0-.5,0-.7-.5-.8.3-1.6,0-2.3-.3-.9-.3-1.7-.3-2.6v-10.6c-.3-.6-.8-.6-1.2-.6-1.3,0-2.6,0-4,.4-.3,0-.6,0-1-.2l-1,.5c0,2.1-.3,4.2-.2,6.3.2,1.9.3,3.8-.3,5.7.3.9-.3,1.9.3,2.7.2,2.4.3,4.8-.3,7.2,0,.5.3,1.1.3,1.6,0,.5-.3,1.1,0,1.6-.3,1.1,0,2.6,0,3.8,0,.9,0,1.7,0,2.5-.3.6-.8.8-1.1.9-2.6.4-5.1,0-7.8.5l-.9-.5c0-.3-.2-.4-.2-.5-.3-4.8-.2-9.9,0-14.7,0-.9.3-1.8,0-2.8-.2-.8,0-1.6,0-2.6-.3-2.3-.3-4.7-.3-7.1s-.4-1.7-.3-2.6,0-1.6,0-2.2c-.3-.6-.8-.5-1.2-.5s-.9.3-1.5-.2c-.3-1-.3-2.6-.4-3.8-.4-2.1-1.5-3.9-1.1-6,1.2-1.2,2.7-.3,4.1-.9.3-.8.3-1.8.3-2.6-.2-1.5,0-3,0-4.5s0-2.8.3-4.2c.2-.5-.3-1,0-1.6.3-.4,0-.9-.2-1.4,0-.2,0-.3-.2-.4-.2-.8.2-1.5.3-2.1.2-.8-.4-1.3-.2-2.1.5-1.5,0-3,0-4.4s-.3-.9-.3-1.5c0-1.3,0-2.6,0-3.8.2-.2.3-.3.5-.4,1.1,0,2.2-.3,3.2-.3,1.2.3,2.3.4,3.5,0,.5-.2,1.1,0,1.5,0,1.1.6,1.3,1.5,1.3,2.4,0,2.1,0,4.1,0,6.2s-.2,3.1,0,4.5c.5,2.7.3,5.4.3,8.1,0,2.1,0,4.4,0,6.5v1.6c1.9.4,3,.3,5.1,0,.8.3,1.6.3,2.6,0,0-.8,0-1.6,0-2.5,0-.2,0-.4-.2-.7.2-.9.3-1.7.3-2.6,0-2.4.2-4.5-.2-6.9,0-.3.3-.7.3-.6,0,0,0,0,0-.2,0-.2,0-.2-.3-.2,0-3.5.2-6.9-.3-10.5Z"/>
    <path d="M505.8,109.3c.6.9,1.3,1.7,2.2,2.2.7,1,1.4,3.9,1.4,4.3,0,1.1.6,2.1,0,3.2.5,1.1.3,2.2.3,3.3v3.2c0,1.1,0,2.2,0,3.3,0,1.6,0,3.2.4,4.8.3,1.3,0,2.6,0,4,0,.8,0,1.5,0,2.3.3,2.4.2,5.1,0,7.6-.2,1.6-.2,3.3-.2,5s0,1.9,0,2.9c0,1.2,0,2.5.3,3.8.2.5,0,1.1,0,1.7,0,2,0,3.9,0,6,0,2.1-.3,4.3-.7,6.7-.3.4-.6,1.9-1.2,2.4-.9.9-1.8,2-2.9,2.8-1.2.9-2.6.9-3.9,1.6-2.6.5-5.2.9-7.9.5-3.3-.4-6.4-2-9.1-4.1-1.4-1.4-1.8-3.2-2.6-4.9l-.5-14.8c0-.4,0-.9,0-1.2.5-1.7.3-3.5.3-5.3s.3-1.8,0-2.7c-.2-1,0-2.1,0-3.2s0-1.9,0-2.9v-2.8c0-5.7,0-11.4,0-17.1,0-.9,0-1.9-.2-2.8-.3-1.1-.3-2.1.2-3.2,0-.3.2-1.5,0-1.9.7-.9.9-1.3,1.4-2.3,1.1-1,2.1-2.1,3.5-3.6l3.6-1.8c.7,0,1.3,0,2-.3,3.1-.8,5.6-.6,8.9.6l1.7.7c.9.9,1.8,1.4,2.9,1.9ZM499.7,165.6c0-2.6-.3-5.3.3-7.9,0-.3,0-.5,0-.7,0-2.2.3-4.4-.3-6.5,0-.2,0-.4,0-.7.3-1.7.2-3.5.2-5.2-.5-1-.3-2.1-.4-3.1,0-1,0-2.1-.3-3.1-.3-1.1-.3-2.3,0-3.3.3-1.3.4-2.6.3-3.8,0-1,.4-1.9.2-3-.3-1,0-2.2-.2-3.3,0-.9.2-1.9-.3-2.8-.2-.3,0-.9,0-1.2.3-1.4,0-2.6,0-4s0-.3,0-.5c-.3-.4-.8-.8-1.4-1-1.4-.2-2.7-.3-4.1,0-.7.4-1.3.9-1.5,1.3-.5.9-.3,1.5-.5,2.2.6,1.9.2,3.8.3,5.7,0,.6,0,1.1-.2,1.7-.2.4-.2.9-.2,1.4,0,4.8,0,9.7,0,14.4s0,2.1,0,3.1,0,2,0,2.9c0,1,.3,2.1,0,3.1,0,.3,0,.7,0,.9.4.9.3,1.7.3,2.6v13c0,.8-.3,1.6,0,2.1,1.5,1,3,1.3,4.6,1.5.5-.4,1.3-.2,2.1-.3l.9-.9c0-1.7.2-3.2.2-4.6Z"/>
    <path d="M549.4,107c.4.3.4.7.4.9v16.5c0,1.3,0,2.6,0,3.9,0,1.1-.2,2.3,0,3.5,0,1.2,0,2.4,0,3.6s-.2,2.4,0,3.5c.2.9,0,1.9.3,2.8.3.8,0,1.6.2,2.4,0,1.4.3,2.7.2,4.2l-.3,5.1c0,.4,0,.9,0,1.2,0,.9.3,1.8.2,2.7,0,2.6.3,5,.3,7.5s0,2.6,0,3.8c0,1.2,0,2.4,0,3.5-.2,1.2,0,2.3,0,3.5v1.8c0,.6-.4,1.1-.3,1.7,0,0,0,.2,0,.4-.9.3-1.6,1.3-2.8.7-1.2.4-2.3,0-3.3-.3-.7-.2-1.7.2-2.2,0h-1.5c-.8-.3-.9-1.1-1.1-1.7-.7-2.6-1.5-5.3-2-7.9-.2-.6-.6-1.1-.8-1.7-.3-1.9-.8-3.5-1.5-5.2-.5-1.2-1-2.3-1.4-3.5-.5-1.3-.7-2.6-1-3.9-.8-2.6-1.5-5.2-2.4-7.8-.4-1.6-.9-3.2-1.1-5l-.7-.8c.3-.2-.4-.5.2-.7l-.7-.8c.3-.3-.2-.5,0-.8l-.5-.6c0-1.1-.5-1.8-1-2.7-.5.7-.3,1.5-.2,1.9.3,2.6.2,5.3.2,7.9,0,1.2.2,2.3.3,3.5.2,2,.2,3.8,0,5.8,0,.3,0,.8,0,1.1,0,2.9,0,5.7.3,8.6,0,.4,0,.9-.3,1.4.4.9.3,1.7.4,2.6l.2,5.1v3.2c0,.4-.4.5-.5.9,0,.3.3.5.2.9-.3.4-1.2.7-1.7.3-.7-.4-1.2,0-1.9-.2-.3.3-2.3.4-3.7.2-1.1-.2-1.8-.3-2.8.3-.4,0-.6-.3-.9-.7,0-2,0-3.9.2-6,.2-1.7.2-3.6,0-5.4,0-1.1,0-2.2,0-3.3,0-.7,0-1.3-.2-1.9-.3-.9.2-1.7,0-2.6-.2-.9,0-2.1-.2-3-.3-1.5-.3-2.8,0-4.3,0-.6,0-1.3,0-1.9,0-.5.3-4.2.3-4.7.2-1-.3-2.1-.3-3.2-.2-1.7,0-3.4,0-5.1,0-2.9,0-5.8-.3-8.8,0-1.3.2-2.6.2-4,.2-1.6,0-3.3.2-5,.2-1,.2-2.2,0-3.3,0-.4,0-.9.3-1.2-.2-.3-.4-.4-.3-.6.2-1.1-.2-2.1,0-3.2.3-1.4,0-2.8,0-4.2,0-.4.4-.6.7-.9.3-.2.7-.2.9,0,1.3-.5,1.6,0,3.9,0,1.4-.9,2.9.3,4.3-.3.4.2.7.5.8.9.3,1.1.6,2.1,1,3.2.5,1.1.6,2.3,1.2,3.3.4.9.5,1.9.8,2.8.7,2.2,1.1,4.4,1.9,6.7.4,1.2.6,2.6,1.2,3.7.6,1.1.9,2.4,1.5,3.5,0,.2.3.3.3.6,0,1,.4,2,.9,2.9.3.9,1.1,4.8,1.5,5.6.7,1.2.9,2.6,1.3,3.9.2.8.8,1.4.3,2.2,0,.2.3.3.5.2,0,.5.3,1.1.5,1.9.2-1.9.2-3.5,0-5.1,0-.3,0-.6,0-.9.3-2-.3-7-.3-9.1s0-4.5,0-6.8c0-1.1,0-2.2-.3-3.3,0-.8-.3-1.6,0-2.4,0-.3,0-.6,0-.9,0-1.9,0-3.8,0-5.7,0-1.8.3-3.6,0-5.3,0-.7-.2-1.4.5-2.1,3.2.4,6.5.3,9.7.3Z"/>
  </g>
  <g>
    <path d="M148.5,170.7c-3.8,0-6.8,3.1-6.8,6.8s3.1,6.8,6.8,6.8,6.8-3.1,6.8-6.8-3.1-6.8-6.8-6.8ZM148.5,183.4c-3.3,0-5.9-2.7-5.9-5.9s2.7-5.9,5.9-5.9,5.9,2.7,5.9,5.9-2.7,5.9-5.9,5.9Z"/>
    <path d="M149.4,180.7h1.7l-2.1-2.8c.2,0,.4-.1.6-.2.3-.2.6-.4.8-.7s.3-.6.3-1,0-.7-.3-1c-.2-.3-.4-.5-.8-.7-.3-.2-.7-.2-1.1-.2h-2.7v6.6h1.5v-2.7h.2l2,2.7ZM147.3,175.2h1.1c.3,0,.5,0,.7.2.2.2.2.4.2.6s0,.5-.2.6c-.2.1-.4.2-.7.2h-1v-1.6Z"/>
  </g>
</svg>