<?xml version="1.0" encoding="utf-8"?>
<!-- Generator: Adobe Illustrator 25.4.1, SVG Export Plug-In . SVG Version: 6.00 Build 0)  -->
<svg version="1.1" id="Logo_AP_23_Tercero" xmlns="http://www.w3.org/2000/svg" xmlns:xlink="http://www.w3.org/1999/xlink" x="0px"
	 y="0px" viewBox="0 0 308.6 366.1" style="enable-background:new 0 0 308.6 366.1;" xml:space="preserve">
<style type="text/css">
	.st0{fill:#FFFFFF;}
</style>
<g>
	<path class="st0" d="M298.4,63.8C276.4,17.5,207.1,0.5,154.3,0h-0.1c-52.7,0.5-122,17.5-144,63.8C-2.4,90.2-3.3,124.1,7.5,164.5
		c8.8,33.1,23.2,62,31,76.3c18.4,33.7,40.8,64,45.3,69.7c0.4,0.5,0.9,0.8,1.5,0.8c0.1,0,0.2,0,0.3,0c0.5,0,1-0.2,1.4-0.5l14.3-11.5
		c1-0.8,1.2-2.2,0.4-3.2c-5.8-7.2-26.7-36.4-43.1-66.4c-1.5-2.7-3-5.5-4.5-8.5l88.7-23.8v112.2c0,1.3,1,2.3,2.3,2.3h18.4
		c1.3,0,2.3-1,2.3-2.3V191.3l136.6-36.6c0.8-0.2,1.5-0.9,1.7-1.8l1.1-5.7C311.4,114.4,309.1,86.3,298.4,63.8z M142.9,23.3v150.5
		l-98.6,26.4C28.2,162.8,13.2,111.1,31,73.7C44.2,45.8,88,26.2,142.9,23.3z M283.8,136l-118,31.6V23.3
		c54.9,2.9,98.7,22.5,111.9,50.3C285.6,90.1,287.6,111.1,283.8,136z"/>
	<g>
		<path d="M255.4,230.4c-0.5,0-1,0.3-1.3,0.7l-1.5,2.5c-6.4,10.7-13.6,21.9-20.9,32.3c-7,10-14.5,20-23.1,30.4l-0.9,1.1
			c-0.4,0.5-0.4,1.3,0.2,1.8l14.1,12.3c0.3,0.3,0.7,0.4,1.1,0.4s0.8-0.2,1.1-0.5l1.1-1.4c4.4-5.6,8.8-11.4,13-17.3l2-2.9v3.5
			c0,1.5,0,3.1-0.1,5l-0.1,3.8c0,0.6,0.4,1.1,1.1,1.3c0.7,0.2,1.3-0.1,1.7-0.6l2-3.3c21.8-36.1,38.2-74.1,50.1-116.3
			c0.3-1.2-0.5-2.4-1.7-2.7l0,0c-1.2-0.3-2.5,0.2-3,1.2c-9,21.1-18.9,40.5-30.1,59.3l-1.6,2.7l-0.4-3.2c-0.2-1.8-0.5-3.7-0.8-6.1
			l-0.4-2.9c-0.1-0.6-0.5-1-1.2-1.1C255.6,230.4,255.5,230.4,255.4,230.4z"/>
	</g>
	<path d="M208,326.3l-12.2-11.5c-0.5-0.5-1.3-0.8-2-0.8s-1.4,0.3-2,0.9c-21.1,22.3-32.5,28.5-35.6,28.6c-0.2,0-0.5,0-0.9,0.1
		c-0.2,0-0.5,0.1-0.7,0.1s-0.5,0-0.8-0.1c-0.4,0-0.8-0.1-1-0.1c-3.2-0.2-14.9-6.6-36.3-29.1c-0.5-0.5-1.2-0.9-2-0.9s-1.5,0.3-2,0.8
		l-12.2,11.6c-1.1,1.1-1.2,2.8-0.1,4c32.8,34.6,46.3,35.7,50.7,36h0.2c0.7,0.1,1.9,0.2,3.4,0.2l0,0c1.2,0,2.3-0.1,2.8-0.2
		c0,0,0,0,0.1,0c5-0.3,18-1.2,50.6-35.6C209.1,329.2,209.1,327.4,208,326.3z"/>
</g>
</svg>
